HIERARCHY
ROOT Hips
{
    OFFSET   0.000000   0.000000   0.000000
    CHANNELS 6 Xposition Yposition Zposition Zrotation Xrotation Yrotation
    JOINT Chest
    {
        OFFSET   0.000000   8.007230   0.000000
        CHANNELS 3 Zrotation Xrotation Yrotation
        JOINT Chest2
        {
            OFFSET   0.000000  22.077100   0.000000
            CHANNELS 3 Zrotation Xrotation Yrotation
            JOINT Neck
            {
                OFFSET   0.000000  23.255100   0.000000
                CHANNELS 3 Zrotation Xrotation Yrotation
                JOINT Head
                {
                    OFFSET   0.000000  14.370100   1.956600
                    CHANNELS 3 Zrotation Xrotation Yrotation
                    End Site
                    {
                        OFFSET   0.000000  19.566000   0.000000
                    }
                }
            }
            JOINT LeftCollar
            {
                OFFSET   3.911900  19.017000  -0.467063
                CHANNELS 3 Zrotation Xrotation Yrotation
                JOINT LeftShoulder
                {
                    OFFSET  10.383700   0.000000   0.000000
                    CHANNELS 3 Zrotation Xrotation Yrotation
                    JOINT LeftElbow
                    {
                        OFFSET  26.662100   0.001193   0.000980
                        CHANNELS 3 Zrotation Xrotation Yrotation
                        JOINT LeftWrist
                        {
                            OFFSET  28.869000  -0.000059  -0.000082
                            CHANNELS 3 Zrotation Xrotation Yrotation
                            JOINT LeftFinger0
                            {
                                OFFSET   2.044650  -2.323450   3.252850
                                CHANNELS 3 Zrotation Xrotation Yrotation
                                JOINT LeftFinger01
                                {
                                    OFFSET   3.088130   0.000000   0.000000
                                    CHANNELS 3 Zrotation Xrotation Yrotation
                                    JOINT LeftFinger02
                                    {
                                        OFFSET   2.639460   0.000000   0.000000
                                        CHANNELS 3 Zrotation Xrotation Yrotation
                                        End Site
                                        {
                                            OFFSET   2.582190   0.000000   0.000000
                                        }
                                    }
                                }
                            }
                            JOINT LeftFinger1
                            {
                                OFFSET   8.364480   0.000000   3.252850
                                CHANNELS 3 Zrotation Xrotation Yrotation
                                JOINT LeftFinger11
                                {
                                    OFFSET   4.646930   0.000000   0.000000
                                    CHANNELS 3 Zrotation Xrotation Yrotation
                                    JOINT LeftFinger12
                                    {
                                        OFFSET   2.323470   0.000000   0.000000
                                        CHANNELS 3 Zrotation Xrotation Yrotation
                                        End Site
                                        {
                                            OFFSET   2.273050   0.000000   0.000000
                                        }
                                    }
                                }
                            }
                            JOINT LeftFinger2
                            {
                                OFFSET   8.364490   0.000016   1.078090
                                CHANNELS 3 Zrotation Xrotation Yrotation
                                JOINT LeftFinger21
                                {
                                    OFFSET   5.111610   0.000000   0.000000
                                    CHANNELS 3 Zrotation Xrotation Yrotation
                                    JOINT LeftFinger22
                                    {
                                        OFFSET   2.788150   0.000016   0.000000
                                        CHANNELS 3 Zrotation Xrotation Yrotation
                                        End Site
                                        {
                                            OFFSET   2.727660   0.000000   0.000000
                                        }
                                    }
                                }
                            }
                            JOINT LeftFinger3
                            {
                                OFFSET   7.899780   0.000015  -1.078090
                                CHANNELS 3 Zrotation Xrotation Yrotation
                                JOINT LeftFinger31
                                {
                                    OFFSET   4.646930   0.000000   0.000000
                                    CHANNELS 3 Zrotation Xrotation Yrotation
                                    JOINT LeftFinger32
                                    {
                                        OFFSET   2.323470   0.000000   0.000000
                                        CHANNELS 3 Zrotation Xrotation Yrotation
                                        End Site
                                        {
                                            OFFSET   2.273050   0.000000   0.000000
                                        }
                                    }
                                }
                            }
                            JOINT LeftFinger4
                            {
                                OFFSET   7.435090   0.000000  -3.252850
                                CHANNELS 3 Zrotation Xrotation Yrotation
                                JOINT LeftFinger41
                                {
                                    OFFSET   3.717550   0.000000   0.000000
                                    CHANNELS 3 Zrotation Xrotation Yrotation
                                    JOINT LeftFinger42
                                    {
                                        OFFSET   1.858770   0.000000   0.000000
                                        CHANNELS 3 Zrotation Xrotation Yrotation
                                        End Site
                                        {
                                            OFFSET   1.818440   0.000000   0.000000
                                        }
                                    }
                                }
                            }
                        }
                    }
                }
            }
            JOINT RightCollar
            {
                OFFSET  -3.911910  19.017000  -0.467062
                CHANNELS 3 Zrotation Xrotation Yrotation
                JOINT RightShoulder
                {
                    OFFSET -10.383700   0.000014   0.000000
                    CHANNELS 3 Zrotation Xrotation Yrotation
                    JOINT RightElbow
                    {
                        OFFSET -26.662100   0.001225   0.001091
                        CHANNELS 3 Zrotation Xrotation Yrotation
                        JOINT RightWrist
                        {
                            OFFSET -28.869000  -0.000020  -0.000085
                            CHANNELS 3 Zrotation Xrotation Yrotation
                            JOINT RightFinger0
                            {
                                OFFSET  -2.044650  -2.323490   3.252850
                                CHANNELS 3 Zrotation Xrotation Yrotation
                                JOINT RightFinger01
                                {
                                    OFFSET  -3.088130   0.000000   0.000000
                                    CHANNELS 3 Zrotation Xrotation Yrotation
                                    JOINT RightFinger02
                                    {
                                        OFFSET  -2.639460   0.000000   0.000000
                                        CHANNELS 3 Zrotation Xrotation Yrotation
                                        End Site
                                        {
                                            OFFSET  -2.582190   0.000000   0.000000
                                        }
                                    }
                                }
                            }
                            JOINT RightFinger1
                            {
                                OFFSET  -8.364480   0.000000   3.252850
                                CHANNELS 3 Zrotation Xrotation Yrotation
                                JOINT RightFinger11
                                {
                                    OFFSET  -4.646930   0.000000   0.000000
                                    CHANNELS 3 Zrotation Xrotation Yrotation
                                    JOINT RightFinger12
                                    {
                                        OFFSET  -2.323470   0.000000   0.000000
                                        CHANNELS 3 Zrotation Xrotation Yrotation
                                        End Site
                                        {
                                            OFFSET  -2.273050   0.000000   0.000000
                                        }
                                    }
                                }
                            }
                            JOINT RightFinger2
                            {
                                OFFSET  -8.364480   0.000000   1.078090
                                CHANNELS 3 Zrotation Xrotation Yrotation
                                JOINT RightFinger21
                                {
                                    OFFSET  -5.111620   0.000000   0.000000
                                    CHANNELS 3 Zrotation Xrotation Yrotation
                                    JOINT RightFinger22
                                    {
                                        OFFSET  -2.788160   0.000000   0.000000
                                        CHANNELS 3 Zrotation Xrotation Yrotation
                                        End Site
                                        {
                                            OFFSET  -2.727660   0.000000   0.000000
                                        }
                                    }
                                }
                            }
                            JOINT RightFinger3
                            {
                                OFFSET  -7.899780   0.000000  -1.078090
                                CHANNELS 3 Zrotation Xrotation Yrotation
                                JOINT RightFinger31
                                {
                                    OFFSET  -4.646930   0.000000   0.000000
                                    CHANNELS 3 Zrotation Xrotation Yrotation
                                    JOINT RightFinger32
                                    {
                                        OFFSET  -2.323470   0.000000   0.000000
                                        CHANNELS 3 Zrotation Xrotation Yrotation
                                        End Site
                                        {
                                            OFFSET  -2.273050   0.000000   0.000000
                                        }
                                    }
                                }
                            }
                            JOINT RightFinger4
                            {
                                OFFSET  -7.435090   0.000000  -3.252850
                                CHANNELS 3 Zrotation Xrotation Yrotation
                                JOINT RightFinger41
                                {
                                    OFFSET  -3.717550   0.000000   0.000000
                                    CHANNELS 3 Zrotation Xrotation Yrotation
                                    JOINT RightFinger42
                                    {
                                        OFFSET  -1.858760   0.000000   0.000000
                                        CHANNELS 3 Zrotation Xrotation Yrotation
                                        End Site
                                        {
                                            OFFSET  -1.818440   0.000000   0.000000
                                        }
                                    }
                                }
                            }
                        }
                    }
                }
            }
        }
    }
    JOINT LeftHip
    {
        OFFSET   9.783030   0.000000   0.000000
        CHANNELS 3 Zrotation Xrotation Yrotation
        JOINT LeftKnee
        {
            OFFSET   0.000063 -41.789100   0.000608
            CHANNELS 3 Zrotation Xrotation Yrotation
            JOINT LeftAnkle
            {
                OFFSET   0.000048 -41.133200  -0.000184
                CHANNELS 3 Zrotation Xrotation Yrotation
                JOINT LeftToe
                {
                    OFFSET   0.000000  -6.358960  14.674500
                    CHANNELS 3 Zrotation Xrotation Yrotation
                    End Site
                    {
                        OFFSET   0.000000   0.000000   3.913200
                    }
                }
            }
        }
    }
    JOINT RightHip
    {
        OFFSET  -9.783030   0.000000   0.000000
        CHANNELS 3 Zrotation Xrotation Yrotation
        JOINT RightKnee
        {
            OFFSET   0.000071 -41.789100   0.001239
            CHANNELS 3 Zrotation Xrotation Yrotation
            JOINT RightAnkle
            {
                OFFSET   0.000037 -41.133200  -0.000166
                CHANNELS 3 Zrotation Xrotation Yrotation
                JOINT RightToe
                {
                    OFFSET   0.000000  -6.358960  14.674500
                    CHANNELS 3 Zrotation Xrotation Yrotation
                    End Site
                    {
                        OFFSET   0.000000   0.000000   3.913200
                    }
                }
            }
        }
    }
}
MOTION
Frames: 5
Frame Time:   0.016667
  2.370010  89.498900   3.465400  -1.745530 -19.298400   4.781570   0.075420  10.847700   3.256770  -0.505281  21.681500   6.685370  -0.337316  -1.762070  -0.002552  -0.553411  -3.572900  -3.975690  -8.352280  -6.406160  -0.037038 -68.735100  25.966500  -7.879260   1.562800  -5.250010 -23.652400  20.479500 -20.623700  11.691900  39.825900  36.227100 -62.519100 -34.610900   0.004789   0.004847 -12.305400   0.001195   0.005051 -33.972300   5.440440  -8.019290 -28.099000   0.005229  -0.001049 -19.669300   0.004665   0.000367 -28.604500  -2.389120   4.371780 -38.964700   0.001200  -0.002930 -25.950600   0.000083   0.003277 -29.173100  -2.430080   4.349860 -43.885700  -0.003129  -0.001551 -29.227900  -0.006173   0.004775 -35.729100  -2.910210   4.045210 -53.747500  -0.005549  -0.003904 -35.795800  -0.002509   0.000990  11.191600  -1.841900  12.817700  40.781300   3.634860  44.208000 -14.980900 -50.006000 105.089000  40.738600 -48.184000  50.955900 -59.179600  75.373300  97.482800  80.977700   0.010862  -0.068928  47.271100   0.001287  -0.000302  83.387400   4.970090   0.574959  68.246500   0.002754   0.002278  51.184900   0.000239   0.004464  80.211000  -0.003805   0.001192  80.211000   0.003166  -0.001109  60.158300   0.001154  -0.000434  88.998900  -4.996950  -0.087893  92.149900   0.002074   0.000085  69.112400  -0.000472   0.004148  88.984700  -9.998400  -0.176302 110.000000  -0.002480  -0.000268  80.000000   0.006034   0.000837   2.640010  21.716900   3.855310   0.386628   0.083033   2.901670  -4.473020  -2.773190  -4.318140  -0.000000   0.000000   0.000000   4.247480  20.714000  -5.947090  -3.036330   6.219910 -12.957200   2.428950  -7.951850   0.455569   0.000000   0.000000   0.000000
  2.364920  89.505500   3.473070  -1.848420 -19.179200   4.529280   0.081721  10.778300   3.197830  -0.474755  21.543900   6.558960  -0.355518  -1.791240  -0.002689  -0.585717  -3.632220  -3.701080  -8.362990  -6.332210   0.045527 -68.878600  25.641200  -7.591800   1.429770  -5.121810 -23.395300  20.272900 -20.436000  11.606900  39.854100  36.258000 -62.488300 -34.628200   0.004905   0.004849 -12.314100   0.001267   0.005293 -33.867400   5.466100  -8.078940 -28.024500   0.005229  -0.001048 -19.617200   0.004665   0.000368 -28.604100  -2.332400   4.267980 -38.878300   0.001202  -0.002932 -25.893000   0.000083   0.003277 -29.062300  -2.367120   4.249340 -43.715200  -0.003127  -0.001552 -29.114300  -0.006171   0.004773 -35.553600  -2.833020   3.954600 -53.477000  -0.005553  -0.003902 -35.615700  -0.002508   0.000988  11.175300  -1.799530  12.865200  40.653900   3.949790  44.122500 -14.399100 -49.813000 106.361000  39.123600 -46.638000  49.719000 -55.401300  74.735700  94.101700  81.066800   0.010999  -0.070330  47.330500   0.001332  -0.000296  83.428800   4.970310   0.571257  68.280300   0.002819   0.002494  51.210100   0.000396   0.004472  80.261900  -0.004006   0.001255  80.261900   0.003356  -0.001065  60.196400   0.001455  -0.000483  88.999100  -4.997000  -0.087925  92.246900   0.002264   0.000000  69.185200  -0.000365   0.003972  88.984700  -9.998400  -0.176304 110.000000  -0.002632  -0.000293  80.000000   0.005971   0.000890   2.616920  21.652200   3.804000   0.392143   0.056205   3.000320  -4.426470  -2.813250  -4.132800   0.000000   0.000000   0.000000   4.205470  20.627700  -5.840050  -3.015330   6.128800 -12.892300   2.449000  -7.891320   0.548024   0.000000   0.000000   0.000000
  2.359250  89.507000   3.486120  -1.944000 -19.064400   4.301320   0.089708  10.706600   3.123540  -0.438724  21.401600   6.402260  -0.361549  -1.815280  -0.002833  -0.600288  -3.680410  -3.444550  -8.362310  -6.247200   0.143536 -69.032400  25.312700  -7.337050   1.298690  -5.000460 -23.076200  20.110400 -20.249800  11.579500  39.840100  36.196500 -62.388600 -34.646600   0.005025   0.004847 -12.323300   0.001348   0.005543 -33.817000   5.333450  -7.898380 -27.968500   0.005225  -0.001048 -19.578000   0.004667   0.000368 -28.601800  -2.344260   4.290130 -38.874700   0.001204  -0.002932 -25.890500   0.000084   0.003276 -28.922300  -2.370950   4.275210 -43.570600  -0.003130  -0.001552 -29.018000  -0.006171   0.004771 -35.360300  -2.836290   3.981660 -53.189100  -0.005552  -0.003904 -35.424000  -0.002509   0.000988  11.167700  -1.724440  12.892400  40.470700   4.221680  44.113800 -22.069700   0.011718  90.044900  38.358500 -45.339100  49.122300 -52.248900  74.064300  90.697300  81.030400   0.011128  -0.070692  47.306300   0.001373  -0.000279  83.173500   4.959160   0.592285  68.072100   0.002883   0.002704  51.054000   0.000553   0.004492  80.033700  -0.004212   0.001322  80.033700   0.003532  -0.001017  60.025200   0.001756  -0.000523  88.999300  -4.997050  -0.087951  92.089800   0.002442  -0.000109  69.067200  -0.000235   0.003790  88.984700  -9.998410  -0.176301 110.000000  -0.002777  -0.000322  80.000000   0.005905   0.000939   2.626420  21.542900   3.759060   0.372309   0.104832   3.112790  -4.405620  -2.891190  -4.006560  -0.000000   0.000000   0.000000   4.175460  20.561200  -5.767940  -2.992310   6.013710 -12.807300   2.466450  -7.824780   0.623648  -0.000000   0.000000   0.000000
  2.352110  89.507200   3.494390  -2.034020 -18.951100   4.087380   0.101313  10.636300   3.034830  -0.392774  21.262400   6.215460  -0.362415  -1.826690  -0.002977  -0.597307  -3.703450  -3.202820  -8.353590  -6.158750   0.254296 -69.187800  25.007200  -7.120890   1.158410  -4.941450 -22.702300  19.961000 -20.072900  11.562500  39.746400  36.105100 -62.259400 -34.667700   0.005146   0.004846 -12.333800   0.001444   0.005796 -33.777400   5.200640  -7.717940 -27.923500   0.005221  -0.001048 -19.546500   0.004668   0.000367 -28.599400  -2.359380   4.317710 -38.874200   0.001204  -0.002932 -25.890200   0.000086   0.003275 -28.796800  -2.374770   4.309690 -43.433500  -0.003132  -0.001552 -28.926700  -0.006171   0.004769 -35.178600  -2.839520   4.019170 -52.917600  -0.005552  -0.003905 -35.243100  -0.002510   0.000988  11.157900  -1.641060  12.913400  40.231100   4.484060  44.129200 -13.187700 -49.273000 109.295000  37.853400 -44.451100  48.676000 -50.058900  73.594900  88.005700  80.959500   0.011257  -0.070743  47.259200   0.001414  -0.000266  82.748000   4.935090   0.626611  67.725000   0.002943   0.002910  50.793700   0.000705   0.004514  79.650600  -0.004414   0.001387  79.650500   0.003700  -0.000972  59.737900   0.002056  -0.000558  88.999400  -4.997100  -0.087974  91.805100   0.002617  -0.000221  68.853700  -0.000103   0.003602  88.984700  -9.998410  -0.176297 110.000000  -0.002920  -0.000351  80.000000   0.005836   0.000985   2.639880  21.437700   3.734500   0.334372   0.153449   3.213620  -4.389090  -2.942130  -3.901280   0.000000   0.000000   0.000000   4.150380  20.498500  -5.702760  -2.971740   5.890920 -12.723500   2.481000  -7.753750   0.692078   0.000000   0.000000   0.000000
  2.343240  89.505800   3.493550  -2.113840 -18.839500   3.886850   0.118955  10.570900   2.927740  -0.335878  21.133500   5.990200  -0.358111  -1.825180  -0.003120  -0.585078  -3.700830  -2.967230  -8.338620  -6.079570   0.393344 -69.365600  24.735200  -6.942210   1.017650  -4.966420 -22.271500  19.817700 -19.929900  11.546600  39.687700  36.067000 -62.218300 -34.696000   0.005267   0.004846 -12.347900   0.001556   0.006050 -33.737000   5.205270  -7.732210 -27.893000   0.005221  -0.001049 -19.525200   0.004667   0.000366 -28.598600  -2.363190   4.324040 -38.907500   0.001204  -0.002934 -25.912300   0.000086   0.003274 -28.724200  -2.374230   4.319740 -43.308700  -0.003130  -0.001553 -28.843600  -0.006173   0.004774 -35.048900  -2.837960   4.033950 -52.723400  -0.005554  -0.003905 -35.113800  -0.002509   0.000989  11.140100  -1.561260  12.940400  39.832000   4.766270  44.268500 -12.803600 -49.182700 110.130000  37.515400 -44.167000  48.354900 -49.610800  73.534700  87.063200  80.870600   0.011396  -0.070616  47.200100   0.001464  -0.000267  82.376400   4.902420   0.655947  67.421900   0.002998   0.003113  50.566400   0.000850   0.004523  79.310000  -0.004605   0.001450  79.309800   0.003868  -0.000937  59.482500   0.002356  -0.000590  88.999600  -4.997150  -0.087996  91.499300   0.002800  -0.000316  68.624500   0.000013   0.003407  88.984700  -9.998410  -0.176301 110.000000  -0.003064  -0.000379  80.000000   0.005759   0.001029   2.657640  21.394100   3.747860   0.290352   0.057341   3.264490  -4.360120  -2.929020  -3.786960   0.000000   0.000000   0.000000   4.130560  20.435900  -5.640520  -2.960930   5.765610 -12.658100   2.494900  -7.680160   0.764469  -0.000000   0.000000   0.000000
